{
	"asset":{
		"generator":"Khronos glTF Blender I/O v4.0.44",
		"version":"2.0"
	},
	"scene":0,
	"scenes":[
		{
			"name":"Scene",
			"nodes":[
				0,
				1,
				2,
				3,
				4,
				5,
				6,
				7,
				8,
				9,
				10,
				11
			]
		}
	],
	"nodes":[
		{
			"mesh":0,
			"name":"Maceta",
			"scale":[
				0.4786728322505951,
				0.4786728322505951,
				0.4786728322505951
			],
			"translation":[
				0.14424678683280945,
				-0.11632668972015381,
				-0.1180228665471077
			]
		},
		{
			"mesh":1,
			"name":"Tierra",
			"scale":[
				0.23526497185230255,
				0.23526497185230255,
				0.23526497185230255
			],
			"translation":[
				0.13061118125915527,
				0.2444574236869812,
				-0.12431081384420395
			]
		},
		{
			"mesh":2,
			"name":"Plane",
			"rotation":[
				0.3782455027103424,
				0,
				0,
				0.9257053136825562
			],
			"translation":[
				0.12173501402139664,
				1.2504979372024536,
				-1.0535147190093994
			]
		},
		{
			"mesh":3,
			"name":"Plane.001",
			"rotation":[
				0.3104396462440491,
				0.5101748108863831,
				-0.20286394655704498,
				0.7760123014450073
			],
			"translation":[
				-0.6867778301239014,
				1.268120288848877,
				-0.6781094670295715
			]
		},
		{
			"mesh":4,
			"name":"Plane.002",
			"rotation":[
				0.1476382613182068,
				0.8522761464118958,
				-0.3482421338558197,
				0.3613249659538269
			],
			"translation":[
				-0.6799402236938477,
				1.3163306713104248,
				0.28816723823547363
			]
		},
		{
			"mesh":5,
			"name":"Plane.003",
			"rotation":[
				0.34255051612854004,
				-0.39256229996681213,
				0.16040191054344177,
				0.8383467197418213
			],
			"translation":[
				1.0111442804336548,
				1.2987526655197144,
				-0.7012486457824707
			]
		},
		{
			"mesh":6,
			"name":"Plane.004",
			"rotation":[
				0.36836451292037964,
				-0.6767562031745911,
				0.48077666759490967,
				0.4185240566730499
			],
			"scale":[
				0.8285635113716125,
				0.8285635113716125,
				0.8285636305809021
			],
			"translation":[
				0.22722741961479187,
				1.229533076286316,
				0.036146827042102814
			]
		},
		{
			"mesh":7,
			"name":"Plane.005",
			"rotation":[
				0.19010426104068756,
				-0.77646803855896,
				0.32806700468063354,
				0.5033188462257385
			],
			"translation":[
				0.725922167301178,
				1.273866057395935,
				0.2526206970214844
			]
		},
		{
			"mesh":8,
			"name":"Plane.006",
			"rotation":[
				0.6616698503494263,
				-0.08761429041624069,
				0.0928715243935585,
				0.7388448119163513
			],
			"scale":[
				0.676231324672699,
				0.6762313842773438,
				0.6762313842773438
			],
			"translation":[
				0.23486599326133728,
				1.0296744108200073,
				-0.3235486149787903
			]
		},
		{
			"mesh":9,
			"name":"Plane.007",
			"rotation":[
				0.48201045393943787,
				0.5583480000495911,
				-0.41540104150772095,
				0.5323113799095154
			],
			"scale":[
				0.8111059069633484,
				0.8111059069633484,
				0.8111059069633484
			],
			"translation":[
				-0.029171660542488098,
				1.3225595951080322,
				-0.3670794367790222
			]
		},
		{
			"mesh":10,
			"name":"Plane.008",
			"rotation":[
				0.14064417779445648,
				0.7922537922859192,
				-0.5803031921386719,
				0.12570343911647797
			],
			"scale":[
				0.6762313842773438,
				0.6762313842773438,
				0.6762313842773438
			],
			"translation":[
				-0.11414593458175659,
				0.9774074554443359,
				0.03322484344244003
			]
		},
		{
			"mesh":11,
			"name":"Plane.009",
			"rotation":[
				0.01370403915643692,
				-0.9250975847244263,
				0.37799715995788574,
				0.0335388109087944
			],
			"scale":[
				1.1240792274475098,
				1.1240792274475098,
				1.1240792274475098
			],
			"translation":[
				-0.09127543121576309,
				1.3351978063583374,
				0.7340860366821289
			]
		}
	],
	"materials":[
		{
			"doubleSided":true,
			"name":"Maceta",
			"pbrMetallicRoughness":{
				"baseColorFactor":[
					0.800000011920929,
					0.800000011920929,
					0.800000011920929,
					1
				],
				"metallicFactor":0,
				"roughnessFactor":0.3244444727897644
			}
		},
		{
			"doubleSided":true,
			"name":"Tierra",
			"pbrMetallicRoughness":{
				"metallicFactor":0,
				"roughnessFactor":0
			}
		},
		{
			"doubleSided":true,
			"name":"AloeVera",
			"pbrMetallicRoughness":{
				"baseColorTexture":{
					"index":0
				},
				"metallicFactor":0
			}
		},
		{
			"doubleSided":true,
			"name":"AloeVera.001",
			"pbrMetallicRoughness":{
				"baseColorTexture":{
					"index":1
				},
				"metallicFactor":0
			}
		},
		{
			"doubleSided":true,
			"name":"AloeVera.002",
			"pbrMetallicRoughness":{
				"baseColorTexture":{
					"index":2
				},
				"metallicFactor":0
			}
		},
		{
			"doubleSided":true,
			"name":"AloeVera.003",
			"pbrMetallicRoughness":{
				"baseColorTexture":{
					"index":3
				},
				"metallicFactor":0
			}
		},
		{
			"doubleSided":true,
			"name":"AloeVera.004",
			"pbrMetallicRoughness":{
				"baseColorTexture":{
					"index":4
				},
				"metallicFactor":0
			}
		},
		{
			"doubleSided":true,
			"name":"AloeVera.005",
			"pbrMetallicRoughness":{
				"baseColorTexture":{
					"index":5
				},
				"metallicFactor":0
			}
		},
		{
			"doubleSided":true,
			"name":"AloeVera.006",
			"pbrMetallicRoughness":{
				"baseColorTexture":{
					"index":6
				},
				"metallicFactor":0
			}
		},
		{
			"doubleSided":true,
			"name":"AloeVera.007",
			"pbrMetallicRoughness":{
				"baseColorTexture":{
					"index":7
				},
				"metallicFactor":0
			}
		},
		{
			"doubleSided":true,
			"name":"AloeVera.008",
			"pbrMetallicRoughness":{
				"baseColorTexture":{
					"index":8
				},
				"metallicFactor":0
			}
		},
		{
			"doubleSided":true,
			"name":"AloeVera.009",
			"pbrMetallicRoughness":{
				"baseColorTexture":{
					"index":9
				},
				"metallicFactor":0
			}
		}
	],
	"meshes":[
		{
			"name":"Cylinder.002",
			"primitives":[
				{
					"attributes":{
						"POSITION":0,
						"NORMAL":1,
						"TEXCOORD_0":2
					},
					"indices":3,
					"material":0
				}
			]
		},
		{
			"name":"Cylinder",
			"primitives":[
				{
					"attributes":{
						"POSITION":4,
						"NORMAL":5,
						"TEXCOORD_0":6
					},
					"indices":7,
					"material":1
				}
			]
		},
		{
			"name":"Mesh",
			"primitives":[
				{
					"attributes":{
						"POSITION":8,
						"NORMAL":9,
						"TEXCOORD_0":10
					},
					"indices":11,
					"material":2
				}
			]
		},
		{
			"name":"Mesh",
			"primitives":[
				{
					"attributes":{
						"POSITION":12,
						"NORMAL":13,
						"TEXCOORD_0":14
					},
					"indices":11,
					"material":3
				}
			]
		},
		{
			"name":"Mesh",
			"primitives":[
				{
					"attributes":{
						"POSITION":15,
						"NORMAL":16,
						"TEXCOORD_0":17
					},
					"indices":11,
					"material":4
				}
			]
		},
		{
			"name":"Mesh",
			"primitives":[
				{
					"attributes":{
						"POSITION":18,
						"NORMAL":19,
						"TEXCOORD_0":20
					},
					"indices":11,
					"material":5
				}
			]
		},
		{
			"name":"Mesh",
			"primitives":[
				{
					"attributes":{
						"POSITION":21,
						"NORMAL":22,
						"TEXCOORD_0":23
					},
					"indices":11,
					"material":6
				}
			]
		},
		{
			"name":"Mesh",
			"primitives":[
				{
					"attributes":{
						"POSITION":24,
						"NORMAL":25,
						"TEXCOORD_0":26
					},
					"indices":11,
					"material":7
				}
			]
		},
		{
			"name":"Mesh",
			"primitives":[
				{
					"attributes":{
						"POSITION":27,
						"NORMAL":28,
						"TEXCOORD_0":29
					},
					"indices":11,
					"material":8
				}
			]
		},
		{
			"name":"Mesh",
			"primitives":[
				{
					"attributes":{
						"POSITION":30,
						"NORMAL":31,
						"TEXCOORD_0":32
					},
					"indices":11,
					"material":9
				}
			]
		},
		{
			"name":"Mesh",
			"primitives":[
				{
					"attributes":{
						"POSITION":33,
						"NORMAL":34,
						"TEXCOORD_0":35
					},
					"indices":11,
					"material":10
				}
			]
		},
		{
			"name":"Mesh",
			"primitives":[
				{
					"attributes":{
						"POSITION":36,
						"NORMAL":37,
						"TEXCOORD_0":38
					},
					"indices":11,
					"material":11
				}
			]
		}
	],
	"textures":[
		{
			"sampler":0,
			"source":0
		},
		{
			"sampler":0,
			"source":0
		},
		{
			"sampler":0,
			"source":0
		},
		{
			"sampler":0,
			"source":0
		},
		{
			"sampler":0,
			"source":0
		},
		{
			"sampler":0,
			"source":0
		},
		{
			"sampler":0,
			"source":0
		},
		{
			"sampler":0,
			"source":0
		},
		{
			"sampler":0,
			"source":0
		},
		{
			"sampler":0,
			"source":0
		}
	],
	"images":[
		{
			"mimeType":"image/png",
			"name":"aloe-vera-planta-natural",
			"uri":"aloe-vera-planta-natural.png"
		}
	],
	"accessors":[
		{
			"bufferView":0,
			"componentType":5126,
			"count":7000,
			"max":[
				2.690000057220459,
				1.0039489269256592,
				2.690000057220459
			],
			"min":[
				-2.690000057220459,
				-1.015289306640625,
				-2.690000057220459
			],
			"type":"VEC3"
		},
		{
			"bufferView":1,
			"componentType":5126,
			"count":7000,
			"type":"VEC3"
		},
		{
			"bufferView":2,
			"componentType":5126,
			"count":7000,
			"type":"VEC2"
		},
		{
			"bufferView":3,
			"componentType":5123,
			"count":11988,
			"type":"SCALAR"
		},
		{
			"bufferView":4,
			"componentType":5126,
			"count":192,
			"max":[
				5.139999866485596,
				0.11000001430511475,
				5.139999866485596
			],
			"min":[
				-5.139999866485596,
				-0.11000001430511475,
				-5.139999866485596
			],
			"type":"VEC3"
		},
		{
			"bufferView":5,
			"componentType":5126,
			"count":192,
			"type":"VEC3"
		},
		{
			"bufferView":6,
			"componentType":5126,
			"count":192,
			"type":"VEC2"
		},
		{
			"bufferView":7,
			"componentType":5123,
			"count":372,
			"type":"SCALAR"
		},
		{
			"bufferView":8,
			"componentType":5126,
			"count":1727,
			"max":[
				0.21587087213993073,
				0.28344303369522095,
				1.44387686252594
			],
			"min":[
				-0.598883867263794,
				-0.35700803995132446,
				-2.765768527984619
			],
			"type":"VEC3"
		},
		{
			"bufferView":9,
			"componentType":5126,
			"count":1727,
			"type":"VEC3"
		},
		{
			"bufferView":10,
			"componentType":5126,
			"count":1727,
			"type":"VEC2"
		},
		{
			"bufferView":11,
			"componentType":5123,
			"count":8832,
			"type":"SCALAR"
		},
		{
			"bufferView":12,
			"componentType":5126,
			"count":1727,
			"max":[
				0.21587087213993073,
				0.28344303369522095,
				1.44387686252594
			],
			"min":[
				-0.598883867263794,
				-0.35700803995132446,
				-2.765768527984619
			],
			"type":"VEC3"
		},
		{
			"bufferView":13,
			"componentType":5126,
			"count":1727,
			"type":"VEC3"
		},
		{
			"bufferView":14,
			"componentType":5126,
			"count":1727,
			"type":"VEC2"
		},
		{
			"bufferView":15,
			"componentType":5126,
			"count":1727,
			"max":[
				0.21587087213993073,
				0.28344303369522095,
				1.44387686252594
			],
			"min":[
				-0.598883867263794,
				-0.35700803995132446,
				-2.765768527984619
			],
			"type":"VEC3"
		},
		{
			"bufferView":16,
			"componentType":5126,
			"count":1727,
			"type":"VEC3"
		},
		{
			"bufferView":17,
			"componentType":5126,
			"count":1727,
			"type":"VEC2"
		},
		{
			"bufferView":18,
			"componentType":5126,
			"count":1727,
			"max":[
				0.21587087213993073,
				0.28344303369522095,
				1.44387686252594
			],
			"min":[
				-0.598883867263794,
				-0.35700803995132446,
				-2.765768527984619
			],
			"type":"VEC3"
		},
		{
			"bufferView":19,
			"componentType":5126,
			"count":1727,
			"type":"VEC3"
		},
		{
			"bufferView":20,
			"componentType":5126,
			"count":1727,
			"type":"VEC2"
		},
		{
			"bufferView":21,
			"componentType":5126,
			"count":1727,
			"max":[
				0.21587087213993073,
				0.28344303369522095,
				1.44387686252594
			],
			"min":[
				-0.598883867263794,
				-0.35700803995132446,
				-2.765768527984619
			],
			"type":"VEC3"
		},
		{
			"bufferView":22,
			"componentType":5126,
			"count":1727,
			"type":"VEC3"
		},
		{
			"bufferView":23,
			"componentType":5126,
			"count":1727,
			"type":"VEC2"
		},
		{
			"bufferView":24,
			"componentType":5126,
			"count":1727,
			"max":[
				0.21587087213993073,
				0.28344303369522095,
				1.44387686252594
			],
			"min":[
				-0.598883867263794,
				-0.35700803995132446,
				-2.765768527984619
			],
			"type":"VEC3"
		},
		{
			"bufferView":25,
			"componentType":5126,
			"count":1727,
			"type":"VEC3"
		},
		{
			"bufferView":26,
			"componentType":5126,
			"count":1727,
			"type":"VEC2"
		},
		{
			"bufferView":27,
			"componentType":5126,
			"count":1727,
			"max":[
				0.21587087213993073,
				0.28344303369522095,
				1.44387686252594
			],
			"min":[
				-0.598883867263794,
				-0.35700803995132446,
				-2.765768527984619
			],
			"type":"VEC3"
		},
		{
			"bufferView":28,
			"componentType":5126,
			"count":1727,
			"type":"VEC3"
		},
		{
			"bufferView":29,
			"componentType":5126,
			"count":1727,
			"type":"VEC2"
		},
		{
			"bufferView":30,
			"componentType":5126,
			"count":1727,
			"max":[
				0.21587087213993073,
				0.28344303369522095,
				1.44387686252594
			],
			"min":[
				-0.598883867263794,
				-0.35700803995132446,
				-2.765768527984619
			],
			"type":"VEC3"
		},
		{
			"bufferView":31,
			"componentType":5126,
			"count":1727,
			"type":"VEC3"
		},
		{
			"bufferView":32,
			"componentType":5126,
			"count":1727,
			"type":"VEC2"
		},
		{
			"bufferView":33,
			"componentType":5126,
			"count":1727,
			"max":[
				0.21587087213993073,
				0.28344303369522095,
				1.44387686252594
			],
			"min":[
				-0.598883867263794,
				-0.35700803995132446,
				-2.765768527984619
			],
			"type":"VEC3"
		},
		{
			"bufferView":34,
			"componentType":5126,
			"count":1727,
			"type":"VEC3"
		},
		{
			"bufferView":35,
			"componentType":5126,
			"count":1727,
			"type":"VEC2"
		},
		{
			"bufferView":36,
			"componentType":5126,
			"count":1727,
			"max":[
				0.21587087213993073,
				0.28344303369522095,
				1.44387686252594
			],
			"min":[
				-0.598883867263794,
				-0.35700803995132446,
				-2.765768527984619
			],
			"type":"VEC3"
		},
		{
			"bufferView":37,
			"componentType":5126,
			"count":1727,
			"type":"VEC3"
		},
		{
			"bufferView":38,
			"componentType":5126,
			"count":1727,
			"type":"VEC2"
		}
	],
	"bufferViews":[
		{
			"buffer":0,
			"byteLength":84000,
			"byteOffset":0,
			"target":34962
		},
		{
			"buffer":0,
			"byteLength":84000,
			"byteOffset":84000,
			"target":34962
		},
		{
			"buffer":0,
			"byteLength":56000,
			"byteOffset":168000,
			"target":34962
		},
		{
			"buffer":0,
			"byteLength":23976,
			"byteOffset":224000,
			"target":34963
		},
		{
			"buffer":0,
			"byteLength":2304,
			"byteOffset":247976,
			"target":34962
		},
		{
			"buffer":0,
			"byteLength":2304,
			"byteOffset":250280,
			"target":34962
		},
		{
			"buffer":0,
			"byteLength":1536,
			"byteOffset":252584,
			"target":34962
		},
		{
			"buffer":0,
			"byteLength":744,
			"byteOffset":254120,
			"target":34963
		},
		{
			"buffer":0,
			"byteLength":20724,
			"byteOffset":254864,
			"target":34962
		},
		{
			"buffer":0,
			"byteLength":20724,
			"byteOffset":275588,
			"target":34962
		},
		{
			"buffer":0,
			"byteLength":13816,
			"byteOffset":296312,
			"target":34962
		},
		{
			"buffer":0,
			"byteLength":17664,
			"byteOffset":310128,
			"target":34963
		},
		{
			"buffer":0,
			"byteLength":20724,
			"byteOffset":327792,
			"target":34962
		},
		{
			"buffer":0,
			"byteLength":20724,
			"byteOffset":348516,
			"target":34962
		},
		{
			"buffer":0,
			"byteLength":13816,
			"byteOffset":369240,
			"target":34962
		},
		{
			"buffer":0,
			"byteLength":20724,
			"byteOffset":383056,
			"target":34962
		},
		{
			"buffer":0,
			"byteLength":20724,
			"byteOffset":403780,
			"target":34962
		},
		{
			"buffer":0,
			"byteLength":13816,
			"byteOffset":424504,
			"target":34962
		},
		{
			"buffer":0,
			"byteLength":20724,
			"byteOffset":438320,
			"target":34962
		},
		{
			"buffer":0,
			"byteLength":20724,
			"byteOffset":459044,
			"target":34962
		},
		{
			"buffer":0,
			"byteLength":13816,
			"byteOffset":479768,
			"target":34962
		},
		{
			"buffer":0,
			"byteLength":20724,
			"byteOffset":493584,
			"target":34962
		},
		{
			"buffer":0,
			"byteLength":20724,
			"byteOffset":514308,
			"target":34962
		},
		{
			"buffer":0,
			"byteLength":13816,
			"byteOffset":535032,
			"target":34962
		},
		{
			"buffer":0,
			"byteLength":20724,
			"byteOffset":548848,
			"target":34962
		},
		{
			"buffer":0,
			"byteLength":20724,
			"byteOffset":569572,
			"target":34962
		},
		{
			"buffer":0,
			"byteLength":13816,
			"byteOffset":590296,
			"target":34962
		},
		{
			"buffer":0,
			"byteLength":20724,
			"byteOffset":604112,
			"target":34962
		},
		{
			"buffer":0,
			"byteLength":20724,
			"byteOffset":624836,
			"target":34962
		},
		{
			"buffer":0,
			"byteLength":13816,
			"byteOffset":645560,
			"target":34962
		},
		{
			"buffer":0,
			"byteLength":20724,
			"byteOffset":659376,
			"target":34962
		},
		{
			"buffer":0,
			"byteLength":20724,
			"byteOffset":680100,
			"target":34962
		},
		{
			"buffer":0,
			"byteLength":13816,
			"byteOffset":700824,
			"target":34962
		},
		{
			"buffer":0,
			"byteLength":20724,
			"byteOffset":714640,
			"target":34962
		},
		{
			"buffer":0,
			"byteLength":20724,
			"byteOffset":735364,
			"target":34962
		},
		{
			"buffer":0,
			"byteLength":13816,
			"byteOffset":756088,
			"target":34962
		},
		{
			"buffer":0,
			"byteLength":20724,
			"byteOffset":769904,
			"target":34962
		},
		{
			"buffer":0,
			"byteLength":20724,
			"byteOffset":790628,
			"target":34962
		},
		{
			"buffer":0,
			"byteLength":13816,
			"byteOffset":811352,
			"target":34962
		}
	],
	"samplers":[
		{
			"magFilter":9729,
			"minFilter":9987
		}
	],
	"buffers":[
		{
			"byteLength":825168,
			"uri":"sabila.bin"
		}
	]
}
